#!OML:ASF H:\Terrain\Patient Classification 1\Takeo\Monday\TakeoMonday.ASF
:FULLY-SPECIFIED
:DEGREES
2067
root 10.662 17.772 -0.0776189 -7.42294 -22.0991 0.0890493
lowerback 3.32375 -2.67585 -1.4993
upperback 0.291564 -3.61182 0.797272
thorax -1.41696 -1.79459 1.81405
lowerneck -9.99493 -4.65739 -0.388278
upperneck 8.79168 -6.86234 5.75369
head 4.48885 -3.06221 1.36017
rclavicle -7.92654e-015 -3.97569e-016
rhumerus 26.1435 15.8065 -70.6789
rradius 134.511
rwrist -54.2757
rhand -38.9355 24.1579
rfingers 7.12502
rthumb -11.9415 -5.48146
lclavicle -7.92654e-015 -3.97569e-016
lhumerus -41.0926 12.5894 83.0057
lradius 38.8832
lwrist 40.3384
lhand -23.0109 23.2546
lfingers 7.12502
lthumb 3.43253 53.2067
rfemur 4.72577 9.40816 17.7606
rtibia 16.0072
rfoot -10.2165 -9.72966
rtoes -6.76932
lfemur 8.64225 5.40795 -23.064
ltibia 16.6786
lfoot -19.7846 25.289
ltoes 5.47569
2068
root 10.6608 17.7763 -0.0845086 -7.32995 -22.0934 -0.218221
lowerback 3.41023 -2.62117 -1.3252
upperback 0.224331 -3.53073 0.977611
thorax -1.53684 -1.75303 1.90529
lowerneck -10.0931 -4.63895 -0.489564
upperneck 8.35699 -6.81899 5.96082
head 4.38141 -3.04076 1.44501
rclavicle -5.56597e-014 -1.23246e-014
rhumerus 27.6942 15.3082 -70.6965
rradius 133.573
rwrist -55.2463
rhand -38.7059 24.5333
rfingers 7.12502
rthumb -11.72 -5.11881
lclavicle -5.56597e-014 -1.23246e-014
lhumerus -41.0621 12.8794 83.1858
lradius 39.1603
lwrist 39.8273
lhand -21.9587 23.8295
lfingers 7.12502
lthumb 4.44864 53.7628
rfemur 4.81847 9.5236 18.1353
rtibia 15.8143
rfoot -10.1011 -9.945
rtoes -6.58874
lfemur 8.50242 5.35091 -22.729
ltibia 16.9403
lfoot -19.9113 25.2262
ltoes 4.29084
2069
root 10.661 17.7858 -0.0905402 -7.26034 -22.0638 -0.365811
lowerback 3.43769 -2.60642 -1.32076
upperback 0.158783 -3.50853 1.14558
thorax -1.61017 -1.74038 2.07754
lowerneck -9.58083 -4.45105 -1.07273
upperneck 7.21004 -6.51406 6.98703
head 3.99145 -2.89228 1.89397
rclavicle 5.34234e-015 5.1684e-015
rhumerus 29.3146 14.7734 -70.9568
rradius 132.76
rwrist -55.9381
rhand -38.6405 23.9001
rfingers 7.12502
rthumb -11.657 -5.75561
lclavicle 5.34234e-015 5.1684e-015
lhumerus -41.0284 13.0409 83.4855
lradius 39.5181
lwrist 39.3667
lhand -22.0373 24.5754
lfingers 7.12502
lthumb 4.37271 54.5103
rfemur 4.75595 9.62607 18.3113
rtibia 15.8022
rfoot -10.2115 -10.0211
rtoes -7.14482
lfemur 8.42793 5.28647 -22.5844
ltibia 17.0147
lfoot -19.6349 25.2955
ltoes 3.92926
2070
root 10.6593 17.7846 -0.0940864 -7.36312 -21.907 -0.156696
lowerback 3.30547 -2.49782 -1.58161
upperback 0.198033 -3.37153 1.20627
thorax -1.48332 -1.67198 2.27133
lowerneck -9.2302 -4.36327 -1.68893
upperneck 6.08483 -6.31943 7.87665
head 3.63402 -2.80564 2.29261
rclavicle -8.39865e-015 -1.11319e-014
rhumerus 30.8656 13.9298 -70.8947
rradius 131.987
rwrist -56.5618
rhand -38.7871 23.3359
rfingers 7.12502
rthumb -11.7984 -6.31182
lclavicle -8.39865e-015 -1.11319e-014
lhumerus -40.7658 12.4581 84.152
lradius 39.8654
lwrist 39.6362
lhand -22.871 24.533
lfingers 7.12502
lthumb 3.56763 54.4829
rfemur 4.74427 9.61322 18.0969
rtibia 15.9168
rfoot -10.3151 -10.097
rtoes -6.76155
lfemur 8.47138 5.25412 -22.7948
ltibia 16.9569
lfoot -19.3922 25.2851
ltoes 4.62755
2071
root 10.658 17.7759 -0.0974338 -7.4101 -21.6558 0.0221623
lowerback 3.0784 -2.37397 -1.67072
upperback 0.2175 -3.20668 1.2159
thorax -1.33906 -1.59106 2.31268
lowerneck -9.40557 -4.55408 -1.87163
upperneck 5.34893 -6.47207 7.4575
head 3.80804 -2.93124 2.42668
rclavicle -1.12313e-014 2.78299e-015
rhumerus 32.2128 12.9914 -70.8146
rradius 131.297
rwrist -57.7327
rhand -39.0079 22.9887
rfingers 7.12502
rthumb -12.0113 -6.64667
lclavicle -1.12313e-014 2.78299e-015
lhumerus -40.4997 11.858 84.7309
lradius 40.0326
lwrist 39.7855
lhand -22.8911 24.5537
lfingers 7.12502
lthumb 3.54825 54.5039
rfemur 4.68027 9.41787 17.8844
rtibia 16.1396
rfoot -10.5192 -10.125
rtoes -6.14387
lfemur 8.49788 5.32098 -22.9582
ltibia 16.8241
lfoot -19.0088 25.1928
ltoes 3.99358
2072
root 10.655 17.7693 -0.102238 -7.43665 -21.4858 0.095103
lowerback 2.98105 -2.32068 -1.61765
upperback 0.18939 -3.13328 1.15281
thorax -1.32357 -1.55461 2.21187
lowerneck -9.77472 -4.69153 -1.68181
upperneck 5.21381 -6.63474 7.0454
head 3.81069 -3.01932 2.23209
rclavicle -4.08999e-014 6.36111e-015
rhumerus 33.6002 12.4417 -71.0897
rradius 130.486
rwrist -58.9616
rhand -39.0086 22.6826
rfingers 7.12502
rthumb -12.0119 -6.95268
lclavicle -4.08999e-014 6.36111e-015
lhumerus -40.3627 11.5622 84.9158
lradius 40.1582
lwrist 39.7276
lhand -22.7247 25.3794
lfingers 7.12502
lthumb 3.70897 55.3269
rfemur 4.62471 9.29346 17.8123
rtibia 16.3378
rfoot -10.6896 -10.149
rtoes -6.44131
lfemur 8.50493 5.34165 -23.0201
ltibia 16.7457
lfoot -18.8193 25.1498
ltoes 3.23138
2073
root 10.6518 17.7679 -0.107919 -7.45897 -21.3977 0.182849
lowerback 2.84906 -2.26906 -1.53985
upperback 0.255255 -3.0625 0.968944
thorax -1.19975 -1.52182 1.96946
lowerneck -10.1717 -4.69752 -1.47756
upperneck 4.89033 -6.66699 7.2446
head 3.77673 -3.02159 2.25386
rclavicle 1.98785e-014 4.37326e-015
rhumerus 35.1156 12.0168 -71.3758
rradius 129.538
rwrist -59.9896
rhand -38.7364 22.7628
rfingers 7.12502
rthumb -11.7494 -6.88771
lclavicle 1.98785e-014 4.37326e-015
lhumerus -40.0193 11.0877 84.9361
lradius 40.2334
lwrist 40.0293
lhand -23.2571 25.9058
lfingers 7.12502
lthumb 3.1948 55.8617
rfemur 4.60869 9.3349 17.7479
rtibia 16.3284
rfoot -10.608 -10.2805
rtoes -6.61108
lfemur 8.43299 5.35362 -23.0904
ltibia 16.8236
lfoot -18.8617 25.0678
ltoes 3.41336
2074
root 10.6498 17.7733 -0.113453 -7.33027 -21.3496 -0.0643916
lowerback 2.78964 -2.26171 -1.2593
upperback 0.284463 -3.04369 0.936746
thorax -1.15373 -1.51447 1.77576
lowerneck -10.3055 -4.56119 -1.29487
upperneck 4.24021 -6.49755 7.63209
head 3.57707 -2.93155 2.36227
rclavicle 3.46879e-014 5.1684e-015
rhumerus 36.5614 11.643 -71.5942
rradius 128.671
rwrist -61.0762
rhand -38.5547 22.0353
rfingers 7.12502
rthumb -11.5743 -7.62504
lclavicle 3.46879e-014 5.1684e-015
lhumerus -39.7155 10.7546 84.9364
lradius 40.2746
lwrist 40.3327
lhand -22.6729 26.9065
lfingers 7.12502
lthumb 3.75897 56.8531
rfemur 4.61348 9.40267 18.0373
rtibia 16.15
rfoot -10.3729 -10.4753
rtoes -6.57911
lfemur 8.28087 5.43369 -22.7904
ltibia 16.9829
lfoot -18.7039 24.9561
ltoes 3.48315
2075
root 10.6504 17.7823 -0.11645 -7.15014 -21.2626 -0.519922
lowerback 2.86839 -2.26358 -0.865927
upperback 0.241812 -3.03324 1.02535
thorax -1.25754 -1.50984 1.65147
lowerneck -10.3302 -4.40331 -0.783799
upperneck 3.52038 -6.30455 7.64861
head 3.2987 -2.84528 2.2861
rclavicle 1.04362e-014 4.77083e-015
rhumerus 38.0149 11.3255 -71.8655
rradius 127.796
rwrist -62.0954
rhand -38.2042 20.6297
rfingers 7.12502
rthumb -11.2362 -9.04935
lclavicle 1.04362e-014 4.77083e-015
lhumerus -39.5605 10.491 84.9886
lradius 40.3411
lwrist 40.441
lhand -21.7568 28.6143
lfingers 7.12502
lthumb 4.64363 58.5434
rfemur 4.69964 9.33295 18.516
rtibia 15.908
rfoot -10.1626 -10.5628
rtoes -6.45128
lfemur 8.14458 5.32573 -22.3151
ltibia 17.1606
lfoot -18.8277 24.8349
ltoes 3.95114
